# xmcd
#
# Track frame offsets:
#	150
#	17198
#	29048
#	42305
#	59562
#	73389
#	85652
#	98301
#	108890
#	121862
#	133485
#	148442
#	157069
#	170966
#	182358
#	192203
#	203181
#
# Disc length: 2847 seconds
#
# Revision: 0
# Processed by: cddbd v1.5.2PL0 Copyright (c) Steve Scherf et al.
# Submitted via: dBpowerAMP V4.0
#
DISCID=020b1d11
DTITLE=Lynn Anderson - # 3
DYEAR=1900
DGENRE=Country
TTITLE0=Blue Bayon
TTITLE1=You Don´t Have To Say You Love Me
TTITLE2=Keep Me In Mind
TTITLE3=Close To You
TTITLE4=Paradise
TTITLE5=Love Of The Common People
TTITLE6=I fall To Pieces
TTITLE7=Heartbreak Hotel
TTITLE8=Danny´s Song
TTITLE9=That´ll Be The Day
TTITLE10=Faithless Love
TTITLE11=Ride, Ride, Ride
TTITLE12=Two Doors Down
TTITLE13=Foggy Mountain Breakdown
TTITLE14=What A Man My Man Is
TTITLE15=Heaven´s Just A Sin Away
TTITLE16=I´ve Been Everywhere
EXTD=# 3 out of tree
EXTT0=
EXTT1=
EXTT2=
EXTT3=
EXTT4=
EXTT5=
EXTT6=
EXTT7=
EXTT8=
EXTT9=
EXTT10=
EXTT11=
EXTT12=
EXTT13=
EXTT14=
EXTT15=
EXTT16=
PLAYORDER=
